<svg version="1.1" id="Layer_logo" xmlns="http://www.w3.org/2000/svg" x="0" y="0" viewBox="0 0 431 36" xml:space="preserve" aria-labelledby="WPILongdesc"><style>.st0{fill:#fff}</style><g id="XMLID_1903_"><g id="XMLID_2091_"><path id="XMLID_2222_" class="st0" d="M18.1 0C8.2 0 .1 8.1.1 18s8.1 18 18 18 18-8.1 18-18S28 0 18.1 0zm0 35.1C8.6 35.1.9 27.5.9 18 .9 8.5 8.6.9 18 .9 27.5.9 35.1 8.6 35.1 18c.1 9.5-7.6 17.1-17 17.1z"/><g id="XMLID_2201_"><path id="XMLID_2219_" class="st0" d="M11.8 4.4c.4.7.2 1.3-.4 1.7-.6.3-1.3.1-1.6-.5-.4-.6-.2-1.3.4-1.7.7-.4 1.3-.1 1.6.5zm-1.5.9c.2.4.6.6.9.4.3-.2.3-.6.1-1-.2-.4-.6-.6-.9-.4-.3.2-.3.6-.1 1z"/><path id="XMLID_2217_" class="st0" d="M22.4 4.9c-.1 0-.3 0-.6-.1-.8-.2-1.1-.8-.9-1.5.2-.8.9-1.1 1.6-.9.3.1.5.2.5.3l-.2.4c-.1-.1-.2-.2-.4-.2-.4-.1-.8.1-1 .6-.1.5.1.8.5 1 .2 0 .3.1.5 0v.4z"/><path id="XMLID_2215_" class="st0" d="M29.4 10.3c-.1 0-.3-.2-.5-.4-.5-.7-.4-1.3.2-1.7.6-.5 1.4-.3 1.8.2.2.2.3.4.3.5l-.4.2c0-.1-.1-.3-.2-.4-.3-.3-.7-.4-1.1-.1-.4.3-.4.7-.1 1.1.1.1.2.3.3.3l-.3.3z"/><path id="XMLID_2212_" class="st0" d="M8.7 6.9s.1-.1.2-.1c.2-.2.4-.4.4-.7 0-.2 0-.4-.2-.6-.1-.2-.3-.3-.5-.3s-.4.1-.7.3c-.3.2-.4.4-.5.5l1.5 1.9.4-.4-.6-.6zm-.2-.4L8 6l.2-.2c.2-.2.4-.2.6 0 .1.2 0 .5-.2.6l-.1.1z"/><path id="XMLID_2012_" class="st0" d="M14.3 4.9l-.2-.4-.9.3-.7-1.9c-.1 0-.3.1-.5.2l.8 2.3c.5-.2 1-.4 1.5-.5z"/><path id="XMLID_2011_" class="st0" d="M15 4.7c.2 0 .4-.1.5-.1l-.2-1 .5-1.5c-.2 0-.4.1-.6.1l-.1.6c-.1.2-.1.3-.1.5-.1-.1-.2-.3-.3-.4l-.4-.5c-.2 0-.4.1-.6.1l1 1.2.3 1z"/><path id="XMLID_2010_" class="st0" d="M25.7 6.7l.4-.6.6-.9c-.1.3-.1.6-.2.9l-.1 1c.2.1.3.2.5.4l1.4-2c-.1-.1-.3-.2-.4-.3l-.4.6c-.2.3-.4.6-.6.8.1-.3.1-.6.2-.9l.1-1c-.2-.1-.3-.2-.5-.3l-1.4 2c.1.1.3.2.4.3z"/><path id="XMLID_2009_" class="st0" d="M27.8 8.4l1.7-1.7-.4-.4L27.4 8l.4.4z"/><g id="XMLID_2206_"><path id="XMLID_2008_" class="st0" d="M20.2 4v-.2h-1l.1-.5c.2 0 .6.1.9.1V3c-.3 0-.6-.1-.9-.1v-.5s.5 0 .9.1V2c-.5-.1-1-.1-1.5-.1l-.2 2.2c.7 0 1.2-.1 1.7-.1z"/></g><g id="XMLID_2204_"><path id="XMLID_2007_" class="st0" d="M16.3 2v.5c.2 0 .5 0 .6-.1l.1 1.9h.5l-.1-1.9h.7v-.5c-.6 0-1.2 0-1.8.1z"/></g><g id="XMLID_2202_"><path id="XMLID_2006_" class="st0" d="M25.3 3.6l-.4.9c-.3-.2-.6-.3-.8-.4l.4-.9c-.2-.1-.4-.1-.5-.2l-1 2.2c.2.1.3.1.5.2l.4-.9c.3.1.6.3.8.4l-.4.9c.1.1.3.2.4.2l1-2.2c-.1 0-.3-.1-.4-.2z"/></g></g><g id="XMLID_2149_"><g id="XMLID_2186_"><path id="XMLID_2199_" class="st0" d="M32.2 16.4c-.1.1-.1.4-.1.6 0 .2.1.4.3.4.1 0 .2-.1.3-.4.1-.4.3-.7.7-.7.4 0 .7.3.8.9 0 .3 0 .5-.1.6l-.4-.1c0-.1.1-.3.1-.5s-.1-.3-.3-.3c-.2 0-.2.1-.3.5-.1.4-.3.6-.7.7-.4 0-.8-.3-.8-.9 0-.3 0-.6.1-.7l.4-.1z"/><path id="XMLID_2004_" class="st0" d="M30 24.6c-.3.5-.2 1 .5 1.4l1.2.7c.1-.2.2-.3.3-.5l-1.2-.7c-.4-.2-.5-.4-.3-.7.1-.2.4-.3.8-.1l1.2.7c.1-.2.2-.3.2-.5l-1.2-.7c-.8-.3-1.2-.1-1.5.4z"/><path id="XMLID_2003_" class="st0" d="M30.8 13.1l2.2-.9c-.1-.2-.1-.3-.2-.5l-2.2.9c.1.1.2.3.2.5z"/><path id="XMLID_2002_" class="st0" d="M31.2 14.2l.7-.2c.4-.1.7-.2 1-.3-.2.2-.5.4-.7.6l-.8.7c0 .2.1.4.1.6l2.4-.6c0-.2-.1-.3-.1-.5l-.7.2c-.4.1-.7.2-1 .3.2-.2.5-.4.7-.6l.8-.7c-.1-.2-.1-.4-.2-.6l-2.4.6c.1.2.2.4.2.5z"/><path id="XMLID_2001_" class="st0" d="M31.5 20.7c0 .2-.1.4-.1.5l2.4.5c0-.2.1-.4.1-.5l-2.4-.5z"/><g id="XMLID_2193_"><path id="XMLID_2000_" class="st0" d="M31.2 27.4l-.4-.3c-.1.2-.3.4-.4.5l-1.5-1.2c-.1.1-.2.3-.3.4L30 28s-.2.2-.4.5l.4.3c.4-.4.8-.9 1.2-1.4z"/></g><g id="XMLID_2191_"><path id="XMLID_1999_" class="st0" d="M26.7 28.7c-.1 0-.1 0 0 0l.3.3.7-.7.4.4c-.2.2-.4.4-.7.6l.3.3c.2-.2.5-.4.7-.6l.3.4s-.4.4-.7.6l.3.3c.4-.3.8-.6 1.1-1l-1.6-1.8c-.4.5-.7.8-1.1 1.2z"/></g><g id="XMLID_2189_"><path id="XMLID_1998_" class="st0" d="M33.5 22.5l-.5-.2c-.1.2-.1.5-.2.6l-1.8-.6c-.1.2-.1.3-.2.5l1.8.6-.2.6.5.2c.3-.6.5-1.1.6-1.7z"/></g><g id="XMLID_2187_"><path id="XMLID_1997_" class="st0" d="M34.2 18.6h-.5v.7l-2-.3v.5l1.9.2s0 .3-.1.6h.5c.1-.5.1-1.1.2-1.7z"/></g></g><g id="XMLID_2165_"><path id="XMLID_2184_" class="st0" d="M4.5 20.1c.1.1.2.3.2.6.2.8-.2 1.3-.9 1.5-.8.2-1.4-.3-1.5-1-.1-.3-.1-.5 0-.6h.4v.5c.1.4.4.7.9.6.5-.1.7-.4.6-.9 0-.2-.1-.3-.2-.4l.5-.3z"/><path id="XMLID_2181_" class="st0" d="M4.6 23.8l-.1-.1c-.1-.2 0-.3.2-.5.3-.2.4-.3.5-.5-.1-.2-.1-.4-.2-.5-.2.2-.4.3-.6.4-.2.1-.3.3-.3.5-.1-.1-.4-.3-.6-.2-.2.1-.3.2-.4.4-.1.2 0 .5.1.8.1.3.2.5.3.7l2.2-.9c-.1-.2-.2-.3-.2-.5l-.9.4zm-.9.3s-.1-.1-.1-.2c-.1-.2 0-.4.2-.5.2-.1.4 0 .5.3l.1.2-.7.2z"/><g id="XMLID_2179_"><path id="XMLID_1993_" class="st0" d="M4 18h-.3s.1.6.1 1h-.5v-.9h-.4v.9h-.5v-.9h-.5c0 .5 0 1 .1 1.5l2.2-.2c0-.4-.2-.9-.2-1.4z"/></g><path id="XMLID_2176_" class="st0" d="M4.9 25.1c.7-.4 1.3-.3 1.7.3.4.6.2 1.2-.4 1.6-.6.4-1.3.3-1.7-.3-.4-.6-.2-1.3.4-1.6zm1 1.4c.4-.3.6-.6.4-.9-.2-.3-.6-.3-1 0-.4.2-.6.6-.4.9.2.3.6.3 1 0z"/><path id="XMLID_2174_" class="st0" d="M3.8 17.3c.1-.1.2-.3.3-.6 0-.2-.1-.4-.2-.4s-.2.1-.4.4c-.2.4-.4.6-.8.6s-.7-.4-.6-1c0-.3.1-.5.2-.6l.4.2c-.1.1-.1.3-.2.5 0 .2.1.4.2.4.2 0 .2-.1.4-.4.2-.4.4-.6.8-.5.4 0 .7.4.6 1 0 .3-.1.5-.2.7l-.5-.3z"/><path id="XMLID_2171_" class="st0" d="M5.7 10.3l.1-.1c.1-.2.2-.3.5-.2.2.1.4.1.5.2.1-.2.3-.3.4-.5-.3 0-.5-.1-.7-.2-.2-.1-.4-.1-.6 0 0-.2 0-.5-.3-.7-.1-.1-.3-.1-.5 0-.2 0-.4.2-.6.5-.1.3-.3.5-.3.7l2 1.3c.1-.2.2-.3.3-.5l-.8-.5zm-.3-.4l-.1.2-.5-.4s0-.1.1-.2c.1-.2.3-.3.5-.2.2.2.2.4 0 .6z"/><path id="XMLID_1987_" class="st0" d="M8.6 27.9l-.9.6c-.2.1-.4.3-.6.4.2-.2.3-.4.4-.6l.6-.9c-.1-.1-.2-.3-.4-.4l-2.1 1.2c.1.1.2.3.4.4l.8-.6c.2-.2.5-.3.7-.5-.2.3-.3.5-.5.7l-.6.9.4.4.9-.6c.3-.2.5-.3.7-.5-.1.2-.3.5-.5.7l-.6.9c.1.1.3.2.4.4L9 28.3c-.1-.1-.2-.3-.4-.4z"/><g id="XMLID_2168_"><path id="XMLID_1986_" class="st0" d="M5.9 11.8l-.4-.2s-.2.5-.4.9l-.5-.2c.1-.2.2-.5.4-.8l-.4-.2c-.1.3-.3.6-.4.8l-.4-.2s.2-.5.4-.9l-.4-.2c-.2.4-.4.9-.6 1.4l2.2 1c0-.5.2-1 .5-1.4z"/></g><g id="XMLID_2166_"><path id="XMLID_1985_" class="st0" d="M2.3 14.8l.5.2c0-.2.1-.5.1-.6l1.9.5c0-.2.1-.4.1-.5L3 13.8l.2-.6-.5-.2c-.1.6-.3 1.2-.4 1.8z"/></g></g><g id="XMLID_2150_"><g id="XMLID_2153_"><path id="XMLID_2163_" class="st0" d="M14.7 31.9l-.5.1v-.4l.7-.1.4.1-.5 2.3-.5-.1.4-1.9z"/><path id="XMLID_2159_" class="st0" d="M16 32.8c0-.1-.2-.3-.1-.5 0-.4.5-.6.9-.6.5 0 .8.4.7.7 0 .2-.1.4-.4.5.2.1.4.3.4.6 0 .4-.4.7-.9.6-.6-.1-1-.4-.9-.7 0-.3.3-.5.3-.6zm1 .6c0-.2-.1-.3-.3-.4-.2 0-.3.2-.3.3 0 .2.1.3.3.4.2 0 .3-.1.3-.3zm-.5-1.1c0 .2.1.3.3.3.1 0 .2-.1.3-.3 0-.1-.1-.3-.3-.3-.2 0-.3.1-.3.3z"/><path id="XMLID_2156_" class="st0" d="M19.7 32.1c-.1 0-.1.2-.2.2-.5 0-.7-.3-.7.7.1 0 .3-.3.5-.4.4 0 .7.2.8.6 0 .5-.3.8-.8.9-.6 0-1-.4-1-1 0-.4.1-.8.3-1.1.2-.2.5-.4.9-.4h.2v.5zm-.2 1.2c0-.2-.1-.4-.4-.4-.1 0-.3.1-.3.2v.1c0 .2.2.5.4.4.2.1.3-.1.3-.3z"/><path id="XMLID_2154_" class="st0" d="M21.8 31.7l-.8.2v.4h.7c.2.1.3.2.4.5.1.4-.2.9-.8 1-.3.1-.5 0-.7 0v-.4h.5c.2 0 .4-.2.4-.4-.1-.2-.3-.3-.7-.2-.1 0-.2.1-.3.1l-.1-1.2 1.2-.3.2.3z"/></g><circle id="XMLID_1977_" class="st0" cx="11.1" cy="31.2" r=".5"/><circle id="XMLID_1976_" class="st0" cx="25" cy="31.2" r=".5"/></g></g><g id="XMLID_2144_"><path id="XMLID_1975_" class="st0" d="M14 15.3v2.4c0-.1.7-.1 1.2.1.4.1.8.1.8 0v-2.6c0 .1-.6.2-1 0-.6-.1-1 0-1 .1z"/><path id="XMLID_1974_" class="st0" d="M13 15.3c-.4.2-1 .1-1 0v2.6c0 .1.4.1.8 0 .5-.2.2-.2 1.2-.1v-2.4c0-.2-.4-.3-1-.1z"/><path id="XMLID_1973_" class="st0" d="M21 15.3v2.4c1-.1.7-.1 1.2.1.4.1.8.1.8 0v-2.6c0 .1-.6.2-1 0-.6-.1 0 0-1 .1z"/><path id="XMLID_1972_" class="st0" d="M20 15.3c-.4.1-1 .1-1 0v2.6c0 .1.4.1.8 0 .5-.2 1.2-.2 1.2-.1v-2.4c0-.2-.4-.3-1-.1z"/></g><g id="XMLID_2127_"><path id="XMLID_1971_" class="st0" d="M18.9 23c.7 0 .3-.8.3-.8l-.2.2v-.1c0-.5-.3-1-.7-1.3-.3-.2-.1-.5 0-.6h.2c.1 0 .2-.1.3 0h.1c.1 0 .1-.2 0-.3l-.2-.2-.1.1c0 .1-.1.1-.2.2h-.1c-.2-.1-.3 0-.3 0-.2-.1-.3.1-.3.1-.2-.1-.3.1-.3.1-.3 0-.3.2-.2.3l-.4.2-.2-.4-.6.1.4.9.3.1.3-.1.1-.3-.1-.2.3-.1c0 .1.1.2.3.2.3 0 .4-.1.6.5.2.5.6.7.6.7-.5-.1-.7.1-.7.1-.8 0-1 .7-1.1.7h-1.2c.1 1 .1 1 .2 1h3.8c.1 0 .1 0 .2-1h-1.1z"/><g id="XMLID_2136_"><g id="XMLID_2138_"><path id="XMLID_1970_" class="st0" d="M14.6 24.3c.1-.2.1-.5 0-.8-.2.1-.3.2-.4.4l.3.6s.1-.1.1-.2z"/><path id="XMLID_1969_" class="st0" d="M15.3 25.3c.1-.3 0-.6-.2-.8-.2.1-.4.3-.4.6.1.2.3.4.4.6.1-.1.2-.2.2-.4z"/><path id="XMLID_1968_" class="st0" d="M14.2 23.1c.1-.2.1-.5.1-.7-.2 0-.4.2-.5.3.1.2.1.5.2.7 0-.1.1-.2.2-.3z"/><path id="XMLID_1967_" class="st0" d="M13.9 21.9c.1-.2.2-.5.2-.7-.2 0-.3.1-.5.2 0 .2 0 .5.1.7 0-.1.1-.1.2-.2z"/></g><path id="XMLID_1966_" class="st0" d="M15.5 26.5c-1.9-2-2.4-4.3-2.4-5.5H13c0-.1.4-.3.5-.5 0-.3.1-.6-.1-.8-.2 0-.4.3-.4.6s0 .5.2.7v.6c0-.1 0-.1-.1-.2-.1-.2-.4-.4-.6-.5-.1.3 0 .5.1.8.1.2.4.4.6.5 0 .2 0 .4.1.6 0 0 0-.1-.1-.1-.2-.2-.4-.3-.7-.4 0 .3.1.5.3.8.2.2.4.3.7.4.1.2.1.4.2.6l-.1-.1c-.2-.2-.5-.3-.7-.2 0 .3.2.5.4.7.2.2.5.2.7.2.1.2.2.4.3.5l-.1-.1c-.3-.1-.5-.2-.8-.1.1.3.3.5.6.7.2.1.4.1.5.1h.2c.3.4.6.8.9 1.1-.1-.1-.1-.3-.1-.4z"/></g><g id="XMLID_2129_"><g id="XMLID_2131_"><path id="XMLID_1965_" class="st0" d="M21.6 24.6l.3-.6c-.1-.2-.2-.3-.4-.4-.1.2-.1.5 0 .8-.1 0 0 .1.1.2z"/><path id="XMLID_1964_" class="st0" d="M20.9 25.7c.1-.2.3-.4.4-.6-.1-.2-.2-.5-.4-.6-.2.2-.2.5-.2.8.1.2.1.3.2.4z"/><path id="XMLID_1963_" class="st0" d="M22.1 23.4c.1-.2.1-.4.2-.7-.1-.2-.3-.3-.5-.3-.1.3-.1.5.1.7 0 .1.1.2.2.3z"/><path id="XMLID_1962_" class="st0" d="M22.4 22.1c0-.2.1-.5.1-.7-.1-.1-.3-.2-.5-.2 0 .3 0 .5.2.7 0 .1.1.1.2.2z"/></g><path id="XMLID_1961_" class="st0" d="M20.5 27c.3-.4.6-.7.9-1.1h.2c.2 0 .4 0 .5-.1.3-.1.5-.4.6-.7-.3-.1-.5-.1-.8.1l-.1.1c.1-.2.2-.4.3-.5.2 0 .5-.1.7-.2.2-.2.4-.4.4-.7-.3 0-.5.1-.7.2l-.1.1c.1-.2.2-.4.2-.6.2 0 .5-.2.7-.4.2-.2.3-.5.3-.8-.3 0-.5.2-.7.4 0 0 0 .1-.1.1 0-.2.1-.4.1-.6.2-.1.5-.3.6-.5.1-.2.2-.5.1-.8-.3.1-.5.3-.6.5 0 .1-.1.1-.1.2 0-.2 0-.4-.1-.6.1-.2.2-.5.1-.7 0-.3-.2-.5-.4-.7-.2.2-.6.6-.5.8v.5h.4c0 1.2-.1 3.4-2 5.5 0 .1.2.3.1.5z"/></g><path id="XMLID_1960_" class="st0" d="M16.2 26.1V26.4l.3.6c.3.4.7.9 1.5 1.5.3-.2.6-.4.8-.6.5-.5.8-.9 1.1-1.5 0-.1.1-.2.1-.3 0-.3-.1-.6-.3-.8-.4-.4-1-.4-1.4 0-.1.1-.1.2-.2.3 0-.1-.1-.2-.2-.3-.4-.4-1-.4-1.4 0-.3.1-.4.4-.3.8-.1-.1-.1-.1 0 0-.1 0-.1 0 0 0z"/></g><path id="XMLID_2097_" class="st0" d="M11.7 12l.5-.1v-.2l-.3.1v-.9l-.2.1v1zm1.2-1l-.3.1v-.3l.3-.1v-.2l-.5.2v1.1l.5-.2v-.2l-.3.1v-.3l.3-.1V11zm.2-.5v1.1l.2-.1V11l.2-.1v.5l.2-.1v-1.1l-.2.1v.5l-.2.1v-.5l-.2.1zm.8.7l.2-.1v-.4c.1 0 .1 0 .1.1s0 .2.1.2l.2-.1s-.1-.2-.1-.3c0-.1-.1-.2-.1-.2.1-.1.2-.2.2-.4 0-.1 0-.2-.1-.2h-.3c-.1 0-.2.1-.2.1v1.3zm.2-1.1s.1 0 0 0c.2-.1.2 0 .2.1s-.1.2-.1.2v-.3zm7.2.7l.2.1v-.4l.1-.1.2.5.2.1-.3-.7.3-.4-.2-.1-.2.3s0 .1-.1.1v-.5l-.2-.1v1.2zm.8-.8v.7c0 .3.1.5.3.6.2.1.3 0 .3-.3v-.7l-.2-.1v.7c0 .2 0 .2-.1.2s-.1-.1-.1-.3v-.7l-.2-.1zm1 1.6v-.3-.5c0 .1.1.3.1.4l.2.5.2.1v-1.1l-.2-.1v.7c0-.1-.1-.3-.1-.4l-.2-.5-.2-.1v1.1l.2.2zm.6.2s.1.1.2.1c.2.1.4 0 .4-.2 0-.1-.1-.2-.2-.4s-.1-.2-.1-.3c0-.1 0-.1.1-.1s.1 0 .1.1v-.2s-.1-.1-.2-.1c-.2-.1-.4.1-.4.2s.1.2.2.4c.1.1.2.1.2.2s-.1.1-.2.1-.1-.1-.2-.1l.1.3zm.9.2h.2v-.9h.2V11l-.7-.1v.2h.2v.9zm-7.9-.6v.8c0 .3.1.5.4.5.3 0 .4-.1.4-.5v-.8h-.3v.8c0 .2-.1.2-.1.2-.1 0-.1-.1-.1-.3v-.8l-.3.1zm1.2 1.4v-.3-.6c0 .1.1.3.1.4l.2.5h.2v-1.3h-.2V12.4c0-.1-.1-.3-.1-.4l-.2-.5h-.2v1.3h.2zm.8 0h.2c.2 0 .3-.1.4-.2.1-.1.2-.3.2-.5s-.1-.4-.2-.5c-.1-.1-.2-.1-.4-.1h-.3v1.3zm.3-1.1c.2 0 .3.1.3.4 0 .3-.1.5-.2.5v-.9z"/><path id="XMLID_2092_" class="st0" d="M18 5.3C11 5.3 5.3 11 5.3 18c0 7 5.7 12.7 12.7 12.7 7 0 12.7-5.7 12.7-12.7C30.7 11 25 5.3 18 5.3zM11.7 9l.4 1.1c.3-.1.7-.2 1.1-.5 2.4-1.3 3.7-.9 3.7-.4 0 .6-1.7.4-1.7 1.1 0 .4 1.3.7 2.9.7 1.6 0 2.9-.3 2.9-.7 0-.7-1.7-.5-1.7-1.1 0-.6 1.3-.9 3.7.4.4.2.5.4.8.5l.2-1V9h2.6l-.6 1c.3.3.4.5.4.5l-1.6 2.1c-1-.1-1.9-.5-1.9-.5h-.5c-.7-.4-1.4-.6-2.4-.8v1.2c0 .4-.8.7-2.5.7-1.6 0-2.5-.3-2.5-.7v-1.2c-1 .1-1.1.4-1.9.8-.8.4-1.4.5-1.9.5l-1.6-2.1s.1-.3.4-.6L9.6 9h2.1zM18 29.8C14 27.5 10.9 24 9.7 19h16.6c-1.2 5-4.2 8.5-8.3 10.8zM26.4 19H9.6c-.3-1-.5-2.6-.5-3.9 0-.5 0-1 .1-1.6.1.1.6.5 1.4.5h4.9c2.1 0 2.4.7 2.4.7s.4-.7 2.4-.7h4.9c.8 0 1.3-.4 1.4-.5 0 .5.1 1.1.1 1.6.1 1.3 0 2.9-.3 3.9z"/></g><g id="XMLID_2023_"><path id="XMLID_2089_" class="st0" d="M70 9c-2 .3-2 .6-2.9 3.2-.7 1.9-2 7.8-4.5 15.8h-1.4c-1.7-5-3.4-9-5.1-14H56c-1.6 5-3.2 9-4.7 14h-1.4c-1.6-5-3.3-10.6-5-16-.5-2.4-1.9-2.7-2.9-3V8h8v1c-2 .3-2 .5-1.6 2 1.1 3.7 2.4 8 3.6 11 1.5-4 3.1-9 4.5-14h1.3c1.7 5 3.4 10 5.1 14h.1c1.2-3 2.1-8.8 2.6-10.7.4-1.8.4-2-2.6-2.3V8h7v1z"/><path id="XMLID_2086_" class="st0" d="M81.9 20.8c0 4.9-3.5 7.2-6.9 7.2-4.5 0-6.9-3.4-6.9-6.7 0-4.9 3.8-7.3 7-7.3 4.1 0 6.8 3.2 6.8 6.8zm-10-.5c0 3.7 1.4 6.6 3.5 6.6 1.4 0 2.7-1 2.7-5.3 0-3.9-1.2-6.5-3.4-6.5-1.4.1-2.8 1.8-2.8 5.2z"/><path id="XMLID_2084_" class="st0" d="M88.5 17c1-2 2.3-3.1 3.5-3.1 1.1 0 1.9.9 1.9 1.8s-.6 1.7-1.3 2c-.4.2-.7.1-.9-.1-.5-.4-1.1-.6-1.6-.6-.6 0-1.1.6-2.1 2v5.6c0 1.9 0 2.1 2 2.2V28h-7v-1.2c1-.2 2-.3 2-2.2v-6.5c0-1.7-1-1.8-2-2.1v-.8c2-.2 3-.6 5-1.2v3h.5z"/><path id="XMLID_2082_" class="st0" d="M106 24.9c-1.4 1.9-3.4 3.2-5.2 3.2-4 0-6.4-3.1-6.4-6.4 0-2.3 1.1-4.4 3.1-5.9 1.8-1.4 3.7-1.8 4.9-1.8 1.1 0 2.1.4 2.6.8.4.3.5.6.5 1.1 0 .8-.8 1.5-1.2 1.5-.2 0-.4-.1-.6-.3-1.1-1-2.1-1.4-3-1.4-1.5 0-3 1.4-3 4.6 0 4.1 2.9 5.4 4.3 5.4 1.3 0 2.2-.3 3.4-1.4l.6.6z"/><path id="XMLID_2079_" class="st0" d="M118.3 24.9c-1.8 2.6-4.1 3.2-5.3 3.2-3.9 0-6.1-3-6.1-6.5 0-2.2.9-4.1 2.1-5.4 1.3-1.4 3-2.2 4.5-2.2 2.7 0 4.8 2.3 4.8 4.8 0 .6-.2.9-.8 1.1-.5.1-4.2.4-7.4.5.1 3.6 2.1 5.2 4.2 5.2 1.2 0 2.3-.4 3.4-1.4l.6.7zm-7.9-5.9c1.4 0 2.7 0 4.1-.1.5 0 .7-.1.7-.6 0-1.5-.8-3.1-2.1-3.1s-2.5 1.4-2.7 3.8z"/><path id="XMLID_2077_" class="st0" d="M128.4 18.2c-.7-1.8-1.7-3.1-3.2-3.1-.9 0-1.7.8-1.7 1.8 0 1.1.9 1.8 2.4 2.4 2.4 1 4 2.1 4 4.4 0 2.9-2.7 4.3-5.3 4.3-1.6 0-3.1-.6-3.7-1-.2-.5-.5-2.6-.5-3.9l.8-.1c.6 1.9 2 3.9 3.8 3.9 1 0 1.8-.8 1.8-1.8s-.6-1.8-2.3-2.6c-1.5-.7-3.8-1.8-3.8-4.4 0-2.3 1.9-4.1 4.9-4.1 1.3 0 2.1.3 2.8.5.3.7.7 2.7.7 3.4l-.7.3z"/><path id="XMLID_2075_" class="st0" d="M137.9 27.7c-.5.2-1.1.4-1.3.4-2.2 0-3.6-1.1-3.6-3.7V16h-1.7l-.2-.7.8-1.3h1.1v-1.8l2.7-2.2.3.1V14h3.7c.3 1 .3 2-.2 2H136v7.3c0 2.4 1.3 2.7 2 2.7.6 0 1.3-.2 1.8-.4l.3.9-2.2 1.2z"/><path id="XMLID_2072_" class="st0" d="M152.6 24.9c-1.8 2.6-4.1 3.2-5.3 3.2-3.9 0-6.1-3-6.1-6.5 0-2.2.9-4.1 2.1-5.4 1.3-1.4 3-2.2 4.5-2.2 2.7 0 4.8 2.3 4.8 4.8 0 .6-.2.9-.8 1.1-.5.1-4.2.4-7.4.5.1 3.6 2.1 5.2 4.2 5.2 1.2 0 2.3-.4 3.4-1.4l.6.7zm-7.9-5.9c1.4 0 2.7 0 4.1-.1.5 0 .7-.1.7-.6 0-1.5-.8-3.1-2.1-3.1s-2.5 1.4-2.7 3.8z"/><path id="XMLID_2070_" class="st0" d="M159.5 17c1-2 2.3-3.1 3.5-3.1 1.1 0 1.9.9 1.9 1.8s-.6 1.7-1.3 2c-.4.2-.7.1-.9-.1-.5-.4-1.1-.6-1.6-.6-.7 0-1.2.6-2.2 1.9v5.6c0 1.9 0 2.1 2 2.2V28h-7v-1.2c1-.2 2-.3 2-2.2v-6.5c0-1.7-1-1.8-2-2.1v-.8c2-.2 3-.6 5-1.2v3h.6z"/><path id="XMLID_2067_" class="st0" d="M182 8c2.3 0 4 .4 5.2 1.2 1.3 1 2.1 2.4 2.1 4.4 0 4-3 5.9-6.1 6.2-.5.1-1.3.1-1.7.1l-2.5-.5v4.4c0 2.6 1 2.7 3 3V28h-9v-1.3c3-.2 3-.4 3-3V12c0-2.6 0-2.7-3-3V8h9zm-3 10.3c1 .2 1.5.3 2.3.3 1.4 0 4-.9 4-4.9 0-3.4-1.9-4.6-3.9-4.6-.7 0-1.5.2-1.7.3-.2.2-.7.5-.7 1.1v7.8z"/><path id="XMLID_2064_" class="st0" d="M203.7 20.8c0 4.9-3.5 7.2-6.9 7.2-4.5 0-6.9-3.4-6.9-6.7 0-4.9 3.8-7.3 7-7.3 4 0 6.8 3.2 6.8 6.8zm-10-.5c0 3.7 1.4 6.6 3.5 6.6 1.4 0 2.7-1 2.7-5.3 0-3.9-1.2-6.5-3.4-6.5-1.5.1-2.8 1.8-2.8 5.2z"/><path id="XMLID_2062_" class="st0" d="M205 28v-1.2c1-.2 2-.4 2-2.4v-14c0-1.9 0-2-2-2.2v-.8c1-.2 4-.6 5-1.1v18.1c0 2 0 2.2 2 2.4V28h-7z"/><path id="XMLID_2060_" class="st0" d="M230.4 15h-3.2c-1.3 0-1.8.7-2.6 2.3-.8 1.6-1.7 4.2-3.6 8.7-2 4.8-2.6 6.7-3.1 8.4-.2.6-.6.8-1.1.8-.8 0-2-.8-2-1.7 0-.5.2-.8.8-1.1 1.1-.6 1.8-1.3 2.4-2.4.4-.7.6-1.2.7-1.5.2-.5.1-.9-.1-1.4-1.5-4-3.3-8.1-4-9.7-.6-1.4-.7-1.8-2.7-2V14h7v1.3c-1 .3-1.2.5-.9 1.5l2.6 7c.8-1.8 1.5-5.1 2.1-6.9.3-1.1.2-1.4-1.8-1.7V14h8.6l.9 1z"/><path id="XMLID_2058_" class="st0" d="M233.3 27.7c-.5.2-1.3.4-1.5.4-2.2 0-3.8-1.1-3.8-3.7V12.2l2.7-2.2.3.1V14h4c.3 1 .3 2-.2 2H231v7.3c0 2.4 1.5 2.7 2.2 2.7.6 0 1.4-.2 1.9-.4l.4.9-2.2 1.2z"/><path id="XMLID_2055_" class="st0" d="M248.3 24.9c-1.8 2.6-4.1 3.2-5.3 3.2-3.9 0-6.1-3-6.1-6.5 0-2.2.9-4.1 2.1-5.4 1.3-1.4 3-2.2 4.5-2.2 2.7 0 4.8 2.3 4.8 4.8 0 .6-.2.9-.8 1.1-.5.1-4.2.4-7.4.5.1 3.6 2.1 5.2 4.2 5.2 1.2 0 2.3-.4 3.4-1.4l.6.7zm-7.9-5.9c1.4 0 2.7 0 4.1-.1.5 0 .7-.1.7-.6 0-1.5-.8-3.1-2.1-3.1s-2.5 1.4-2.7 3.8z"/><path id="XMLID_2053_" class="st0" d="M261.9 24.9c-1.4 1.9-3.4 3.2-5.2 3.2-4 0-6.4-3.1-6.4-6.4 0-2.3 1.1-4.4 3.1-5.9 1.8-1.4 3.7-1.8 4.9-1.8 1.1 0 2.1.4 2.6.8.4.3.5.6.5 1.1 0 .8-.8 1.5-1.2 1.5-.2 0-.4-.1-.6-.3-1.1-1-2.1-1.4-3.1-1.4-1.5 0-3 1.4-3 4.6 0 4.1 2.9 5.4 4.3 5.4 1.3 0 2.2-.3 3.4-1.4l.7.6z"/><path id="XMLID_2051_" class="st0" d="M271 28v-1.2c1-.2 1-.4 1-2.2v-5.2c0-2.4-1-3.3-2.5-3.3-.9 0-1.5.3-2.5 1.1v7.4c0 1.8 1 2 2 2.2V28h-7v-1.2c2-.1 2-.3 2-2.2V10.4c0-1.9 0-1.9-2-2.1v-.9c2-.2 4-.6 5-1.1V16c2-1.1 2.9-2.1 4.5-2.1 2.6 0 4.5 1.7 4.5 5.1v5.4c0 1.9 0 2 2 2.2V28h-7z"/><path id="XMLID_2049_" class="st0" d="M288 28v-1.2c1-.2 1-.3 1-2.4v-5.1c0-2.1-.9-3.1-2.4-3.1-.9 0-1.6.5-2.6 1.1v7.2c0 1.9 0 2.1 2 2.2V28h-7v-1.2c2-.2 2-.3 2-2.3v-6.3c0-1.8 0-2-2-2.3v-.8c2-.2 4-.6 5-1.2v2.3c1-.4 1.6-.9 2.3-1.4.9-.6 1.7-.9 2.6-.9 2.4 0 4.1 1.8 4.1 4.7v5.8c0 1.9 0 2 1 2.2V28h-6z"/><path id="XMLID_2046_" class="st0" d="M296 28v-1.2c2-.2 2-.3 2-2.4v-6.1c0-1.9 0-2.1-2-2.3v-.8c2-.2 4-.6 5-1.1v10.3c0 2.1 0 2.2 2 2.4V28h-7zm1.9-18c0-1.1.9-1.9 1.9-1.9 1.1 0 1.9.8 1.9 1.9 0 1-.8 1.9-1.9 1.9-1.1 0-1.9-.9-1.9-1.9z"/><path id="XMLID_2044_" class="st0" d="M316.4 24.9c-1.4 1.9-3.4 3.2-5.2 3.2-4 0-6.4-3.1-6.4-6.4 0-2.3 1.1-4.4 3-5.9 1.8-1.4 3.7-1.8 4.9-1.8 1.1 0 2.1.4 2.6.8.4.3.5.6.5 1.1 0 .8-.8 1.5-1.2 1.5-.2 0-.4-.1-.6-.3-1.1-1-2.1-1.4-3.1-1.4-1.5 0-3 1.4-3 4.6 0 4.1 2.9 5.4 4.3 5.4 1.3 0 2.2-.3 3.4-1.4l.8.6z"/><path id="XMLID_2042_" class="st0" d="M325 28v-1.3c2-.2 2-.4 2-3V12c0-2.6 0-2.7-2-3V8h9v1c-3 .2-3 .4-3 3v11.8c0 2.6 0 2.7 3 3V28h-9z"/><path id="XMLID_2040_" class="st0" d="M344 28v-1.2c2-.2 2-.3 2-2.4v-5.1c0-2.1-.9-3.1-2.3-3.1-.9 0-1.7.5-2.7 1.1v7.2c0 1.9 0 2.1 1 2.2V28h-7v-1.2c2-.2 3-.3 3-2.3v-6.3c0-1.8-1-2-2-2.3v-.8c1-.2 3-.6 5-1.2v2.3c0-.4 1.4-.9 2.1-1.4.9-.6 1.3-.9 2.2-.9 2.4 0 3.7 1.8 3.7 4.7v5.8c0 1.9 0 2 2 2.2V28h-7z"/><path id="XMLID_2038_" class="st0" d="M361.1 18.2c-.7-1.8-1.7-3.1-3.2-3.1-.9 0-1.7.8-1.7 1.8 0 1.1.9 1.8 2.4 2.4 2.4 1 4 2.1 4 4.4 0 2.9-2.7 4.3-5.3 4.3-1.6 0-3.1-.6-3.7-1-.2-.5-.5-2.6-.5-3.9l.9-.1c.6 1.9 2 3.9 3.8 3.9 1 0 1.8-.8 1.8-1.8s-.6-1.8-2.3-2.6c-1.5-.7-3.8-1.8-3.8-4.4 0-2.3 1.9-4.1 4.9-4.1 1.3 0 2.1.3 2.8.5.3.7.7 2.7.7 3.4l-.8.3z"/><path id="XMLID_2036_" class="st0" d="M370.7 27.7c-.5.2-1 .4-1.2.4-2.2 0-3.5-1.1-3.5-3.7V16h-1.9l-.2-.7.8-1.3h1.3v-1.8l2.7-2.2.3.1V14h3.5c.3 1 .3 2-.2 2H369v7.3c0 2.4 1.2 2.7 1.9 2.7.6 0 1.3-.2 1.7-.4l.3.9-2.2 1.2z"/><path id="XMLID_2033_" class="st0" d="M374 28v-1.2c2-.2 2-.3 2-2.4v-6.1c0-1.9 0-2.1-2-2.3v-.8c2-.2 4-.6 6-1.1v10.3c0 2.1 0 2.2 2 2.4V28h-8zm2.3-18c0-1.1.9-1.9 1.9-1.9 1.1 0 1.9.8 1.9 1.9 0 1-.8 1.9-1.9 1.9-1 0-1.9-.9-1.9-1.9z"/><path id="XMLID_2031_" class="st0" d="M390 27.7c-.5.2-1.1.4-1.4.4-2.2 0-3.6-1.1-3.6-3.7V16h-1.7l-.1-.7.8-1.3h1v-1.8l2.7-2.2.3.1V14h3.7c.3 1 .3 2-.2 2H388v7.3c0 2.4 1.4 2.7 2 2.7.6 0 1.3-.2 1.8-.4l.3.9-2.1 1.2z"/><path id="XMLID_2029_" class="st0" d="M409 27c-1 .1-1.7.3-2.6.5-.9.2-2.1.4-2.9.6l-.6-.2V26c0 .5-.7.9-1.5 1.3-.9.5-1.7.8-2.6.8-2.3 0-3.9-1.5-3.9-4.4v-6.1c0-1.5-.4-1.6-1.1-1.8l-.9-.2v-.8c1 0 1.9-.1 2.9-.2.9-.1 1.7-.2 2.4-.3-.1 1.1-.3 2.7-.3 4.5V23c0 2.2 1.2 2.9 2.4 2.9.9 0 1.6-.3 2.6-1.1v-7.2c0-1.5-.2-1.7-1-1.8l-1-.2v-.8c1 0 1.7-.1 2.7-.2 1-.1 2.3-.2 2.3-.3v9.9c0 1.5.7 1.8 1.8 1.9l1.2.1v.8z"/><path id="XMLID_2027_" class="st0" d="M416.1 27.7c-.5.2-1.2.4-1.4.4-2.2 0-3.6-1.1-3.6-3.7V16h-1.6l-.2-.7.8-1.3h.9v-1.8l2.7-2.2.3.1V14h3.8c.3 1 .3 2-.2 2H414v7.3c0 2.4 1.4 2.7 2.1 2.7.6 0 1.4-.2 1.8-.4l.4.9-2.2 1.2z"/><path id="XMLID_2024_" class="st0" d="M430.8 24.9c-1.8 2.6-4.1 3.2-5.3 3.2-3.9 0-6.1-3-6.1-6.5 0-2.2.9-4.1 2.1-5.4 1.3-1.4 3-2.2 4.5-2.2 2.7 0 4.8 2.3 4.8 4.8 0 .6-.2.9-.8 1.1-.5.1-4.2.4-7.4.5.1 3.6 2.1 5.2 4.2 5.2 1.2 0 2.3-.4 3.4-1.4l.6.7zm-8-5.9c1.4 0 2.7 0 4.1-.1.5 0 .7-.1.7-.6 0-1.5-.8-3.1-2.1-3.1-1.2 0-2.4 1.4-2.7 3.8z"/></g></g></svg>